<svg width="16" height="16" viewBox="0 0 16 16" fill="none" xmlns="http://www.w3.org/2000/svg"><path d="M11.31 12.535C11.2366 12.4593 11.1956 12.358 11.1956 12.2525C11.1956 12.1471 11.2366 12.0457 11.31 11.97L14.63 8.25001H0.4C0.18 8.25001 0 8.07001 0 7.85001C0 7.63001 0.18 7.45001 0.4 7.45001H14.63L11.315 3.73001C11.17 3.56001 11.155 3.32501 11.31 3.17001C11.465 3.01501 11.735 3.00501 11.88 3.16501C11.88 3.16501 15.84 7.51501 15.88 7.56501C15.92 7.61501 16 7.70501 16 7.85001C15.9987 7.95703 15.9557 8.05931 15.88 8.13501C15.84 8.17501 11.88 12.535 11.88 12.535C11.8031 12.608 11.7011 12.6487 11.595 12.6487C11.4889 12.6487 11.3869 12.608 11.31 12.535Z" fill="black" /></svg>