<svg width="20" height="20" fill="none" xmlns="http://www.w3.org/2000/svg"><g clip-path="url(#a)"><path d="M10.005 5.508c-2.84 0-5.13 2.004-5.13 4.488 0 2.484 2.29 4.488 5.13 4.488 2.839 0 5.129-2.004 5.129-4.488 0-2.484-2.29-4.488-5.13-4.488Zm0 7.406c-1.835 0-3.335-1.309-3.335-2.918 0-1.61 1.495-2.918 3.335-2.918 1.839 0 3.334 1.309 3.334 2.918 0 1.61-1.5 2.918-3.335 2.918Zm6.535-7.59c0 .582-.535 1.047-1.196 1.047-.665 0-1.197-.469-1.197-1.047s.536-1.047 1.197-1.047c.66 0 1.196.47 1.196 1.047Zm3.398 1.063c-.076-1.403-.442-2.645-1.616-3.668-1.17-1.024-2.59-1.344-4.192-1.414-1.652-.082-6.603-.082-8.255 0-1.598.066-3.018.386-4.192 1.41C.51 3.738.147 4.98.067 6.383c-.094 1.445-.094 5.777 0 7.222.076 1.403.442 2.645 1.616 3.668 1.174 1.024 2.59 1.344 4.192 1.415 1.652.082 6.603.082 8.255 0 1.602-.067 3.022-.387 4.191-1.415 1.17-1.023 1.536-2.265 1.617-3.668.093-1.445.093-5.773 0-7.218Zm-2.134 8.77c-.349.765-1.023 1.355-1.902 1.663-1.317.457-4.442.352-5.897.352-1.456 0-4.585.101-5.898-.352-.875-.304-1.549-.894-1.902-1.664-.522-1.152-.401-3.886-.401-5.16 0-1.273-.116-4.012.401-5.16.349-.766 1.023-1.356 1.902-1.664 1.317-.457 4.442-.352 5.897-.352 1.456 0 4.585-.101 5.898.352.875.305 1.549.894 1.902 1.664.522 1.152.401 3.887.401 5.16 0 1.274.12 4.012-.401 5.16Z" fill="#000"/></g><defs><clipPath id="a"><path fill="#fff" d="M0 0h20v20H0z"/></clipPath></defs></svg>