<svg width="20" height="20" viewBox="0 0 20 20" fill="none" xmlns="http://www.w3.org/2000/svg">
<path d="M19.0853 4.84699C18.8672 3.92316 18.2246 3.19559 17.4088 2.94867C15.9299 2.5 10 2.5 10 2.5C10 2.5 4.07019 2.5 2.59133 2.94867C1.77546 3.19563 1.13289 3.92316 0.914805 4.84699C0.518555 6.52148 0.518555 10.0152 0.518555 10.0152C0.518555 10.0152 0.518555 13.5088 0.914805 15.1833C1.13289 16.1071 1.77546 16.8044 2.59133 17.0513C4.07019 17.5 10 17.5 10 17.5C10 17.5 15.9299 17.5 17.4088 17.0513C18.2246 16.8044 18.8672 16.1071 19.0853 15.1833C19.4815 13.5088 19.4815 10.0152 19.4815 10.0152C19.4815 10.0152 19.4815 6.52148 19.0853 4.84699ZM8.06064 13.1871V6.84316L13.0169 10.0152L8.06064 13.1871Z" fill="black"/>
</svg>
